<?xml version="1.0" standalone="no"?>
<!DOCTYPE svg PUBLIC "-//W3C//DTD SVG 20010904//EN"
 "http://www.w3.org/TR/2001/REC-SVG-20010904/DTD/svg10.dtd">
<svg version="1.0" xmlns="http://www.w3.org/2000/svg"
 width="99.000000pt" height="99.000000pt" viewBox="0 0 99.000000 99.000000"
 preserveAspectRatio="xMidYMid meet">

<g transform="translate(0.000000,99.000000) scale(0.100000,-0.100000)"
fill="#000000" stroke="none">
<path d="M265 851 c-99 -30 -111 -37 -143 -90 -70 -113 -116 -262 -110 -351 4
-59 42 -153 85 -208 23 -31 81 -64 138 -78 19 -5 27 2 48 37 l26 43 -41 18
c-61 27 -36 43 29 18 112 -42 284 -42 396 0 65 25 90 9 29 -18 l-41 -18 26
-43 c21 -35 29 -42 48 -37 57 14 115 47 138 78 43 55 81 149 85 208 7 91 -43
246 -113 355 -29 46 -39 53 -96 72 -35 12 -81 24 -101 28 -34 6 -39 5 -47 -16
-8 -23 -12 -24 -126 -24 -112 1 -118 2 -126 23 -10 26 -24 26 -104 3z m100
-303 c59 -27 73 -112 26 -159 -46 -46 -106 -37 -136 21 -19 37 -19 54 1 95 23
49 62 64 109 43z m334 -3 c82 -42 52 -185 -39 -185 -90 0 -121 141 -41 185 33
18 46 18 80 0z"/>
</g>
</svg>
